<svg xmlns="http://www.w3.org/2000/svg" viewBox="0 0 50.43 37.35"><defs><style>.cls-1{fill:#107358;}</style></defs><title>Risorsa 2</title><g id="Livello_2" data-name="Livello 2"><g id="Livello_1-2" data-name="Livello 1"><path class="cls-1" d="M47.81,18.62a10.22,10.22,0,0,1,2.62,6.83,11.89,11.89,0,0,1-12,11.9H0V0H38.47a11.94,11.94,0,0,1,12,12A9.6,9.6,0,0,1,47.81,18.62ZM11.47,14.14H36.6a1.93,1.93,0,0,0,1.87-1.92A1.9,1.9,0,0,0,36.6,10.3H11.47ZM38.47,25a2.15,2.15,0,0,0-2.08-2.08H11.47v4.16h25A2,2,0,0,0,38.47,25Z"/></g></g></svg>